<?xml version="1.0" encoding="UTF-8"?>
<svg width="836.54" height="1265" fill-rule="evenodd" image-rendering="optimizeQuality" shape-rendering="geometricPrecision" text-rendering="geometricPrecision" viewBox="0 0 236.089 357.003" xmlns="http://www.w3.org/2000/svg">
 <path d="m105.564,2.8765c-.532,0-1.4652-.0896-2.128,0s-1.2582.3368-1.8088.532-1.1172.3406-1.4896.6384c-1.3499,1.0795.0986,2.142.5887,3.1766 .1692.3574-.2103.7337-.3759.973s-.5851.5673-.8512.8512-.5451.4517-.7448.8512-.2306.8158-.4256,1.4896c-.195.6738-.4943,1.9273-.7448,2.5536s-.4406.8125-.7448,1.1704-.6206.5319-1.064.9576-1.2485,1.0654-1.596,1.596-.4442.9681-.4256,1.4896 .3537,1.0973.532,1.4896 .4233.5795.532.8512 .1994.41.1064.7448-.4076.7975-.6384,1.1704-.4959.6373-.7448,1.064-.4077.8863-.7448,1.4896-1.0265,1.6273-1.2768,2.128-.2313.5541-.2128.8512 .1338.6102.3192.8512 .4059.3536.7448.532 1.0479.2114 1.2768.532c.0161.0225-.0936,1.9098-.1586,3.4287-.0328.7676-.4916,1.7624-.4558,2.2997s.1108.7281.4822,1.1387 1.1428.4402 1.409.9001-.3363.5475-.532,1.1704-.6203,1.6977-.6384,2.5536 .1087,1.6741.532,2.4472 1.2286,1.5949 1.9152,2.0216 1.3954.372 2.0216.4256 .9931-.0532 1.7024-.1064 1.7024-.1418 2.5536-.2128l2.128-.1064c-.3192.6384-.5138,1.1517-.9576,1.9152s-1.0714,1.9568-1.7024,2.66-1.2939,1.2284-2.0216,1.4896-1.2395.071-2.128,0-2.0416-.0482-3.192-.4256-2.4117-1.2058-3.6176-1.8088c-1.0285-.7093-1.9839-1.4706-3.0856-2.128s-2.3221-1.2586-3.5112-1.8088-2.2865-1.0104-3.6176-1.4896-3.0065-1.0978-4.3624-1.3832-2.4275-.2837-3.724-.3192-2.5673-.0536-4.0432.1064-3.3694.603-4.788.8512-2.6761.4075-3.724.6384-1.8341.6369-2.5536.7448-1.0755.1517-1.7024-.1064-1.135-.8158-1.9152-1.3832-1.8226-1.4518-2.7664-2.0216-1.8394-1.0091-2.8728-1.3832-2.083-.7082-3.2984-.8512-2.8516-.0711-3.9368,0-1.8796.3015-2.5536.4256-1.1071.301-1.4896.3192-.5592.1584-.7448-.2128-.2485-.9684-.2128-1.7024 .266-1.6847.4256-2.66 .3547-2.128.532-3.192c.0355-1.064.1599-2.2997.1064-3.192s-.3368-1.506-.4256-2.128-.1598-.8473-.1064-1.596 .1566-1.9762.4256-2.8728 .6559-1.4714 1.1704-2.4472 1.3655-2.4472 1.9152-3.4048 .9007-1.6974 1.3832-2.3408 .8413-1.2539 1.4896-1.4896 1.2916-.0792 2.0216.2128 1.4896.9753 2.2344,1.4896 1.4531,1.2508 2.2344,1.596 1.814-.0354 2.3408.4256-.4337,1.0292.2128,1.8088 2.2912,1.9429 3.4048,2.5536 2.1954.8149 3.192,1.064 1.862.4618 2.7664.4256 1.7272-.2792 2.5536-.6384 1.6401-.8607 2.3408-1.4896 1.4395-1.3665 1.8088-2.2344 .2482-1.6659.3192-2.7664 .1064-2.7127.1064-3.8304 .0373-2.0639-.1064-2.8728-.4767-1.3968-.7448-1.9152-.4737-.9518-.8512-1.1704-.8653-.0359-1.1704,0-.2526.5174-.6384.2128-.934-1.3596-1.3832-1.8088-.7951-.703-1.2768-.8512-.9742-.0355-1.4896,0-1.0915.2308-1.596.2128-.6014-.0527-1.3832-.3192-2.2875-.9044-3.2984-1.2768-1.7891-.6911-2.7664-.9576-1.9487-.4786-3.0856-.6384-2.4993-.266-3.724-.3192-2.4117-.0177-3.6176,0-2.4578-.0541-3.6176.1064-2.1989.5675-3.2984.8512c-.5674.3902-1.2181.722-1.7024,1.1704s-.7958.8652-1.1704,1.4896-.8322,1.6282-1.064,2.2344 .0121.8678-.3192,1.3832-.7803.798-1.596,1.596-2.0742,1.9146-3.2984,3.192-2.5177,2.8724-4.0432,4.4688-3.3685,3.2443-5.1072,5.1072-3.5806,3.8994-5.32,6.0648-3.9119,4.9713-5.1072,6.916-1.4717,3.3335-2.0216,4.6816-.992,2.4254-1.2768,3.4048-.3015,1.6491-.4256,2.4472-.0318,1.4783-.3192,2.3408-1.0961,1.9408-1.3832,2.7664-.3741,1.4687-.3192,2.128 .2823,1.2526.6384,1.7024 .796.5665 1.3832.8512 1.4187.5675 2.128.8512c.2838.3902.6364.7765.8512,1.1704s.1678.8205.4256,1.1704 .3871.4593 1.064.8512 1.9499,1.0282 2.9792,1.4896 1.9149.727 3.192,1.2768 2.6385,1.0087 4.4688,2.0216 4.7525,2.9792 6.4904,4.0432 2.3746,1.5242 3.9368,2.3408 3.5069,1.8072 5.4264,2.5536 4.0229,1.3826 6.0648,1.9152 4.1082,1.0101 6.1712,1.2768 4.3176.3904 6.1712.3192 3.7062-.5498 4.8944-.7448 1.6698-.484 2.2344-.4256 .6106-.1805.8512.7448 .3547,2.6064.532,4.5752 .1764,4.8523.532,7.2352 .8852,4.6412 1.596,7.0224c1.1492,3.8501 2.4858,7.8797 5.0008,11.0656 1.335,1.6911 4.0409,4.6438 5.6392,6.2776s2.8638,2.2951 3.9368,3.5112 1.6474,2.2844 2.4472,3.724 1.525,3.2628 2.3408,4.8944 1.7733,3.3515 2.5536,4.8944 1.4187,2.8728 2.128,4.3624 1.5943,3.1697 2.128,4.5752c.9999,2.6332 1.9555,5.2354 2.9792,7.8736 .4627,1.1924.7775,2.3484.8512,3.0856s-.0505.5453-.4256,1.1704-1.4421,1.5819-1.8088,2.5536-.2306,2.0747-.3192,3.0856 .1305,1.8588-.2128,2.9792-1.2236,2.4117-1.8088,3.6176-1.3272,2.5455-1.7024,3.6176-.3369,1.5425-.532,2.7664-.39,3.1908-.6384,4.5752c-.4909,2.7359-1.3726,5.3153-2.128,7.98-.3369,1.1883-.3014,1.3651-.7448,2.8728s-1.259,4.1848-1.9152,6.1712-1.383,4.0603-2.0216,5.7456-1.1704,2.8019-1.8088,4.3624-1.5071,3.6168-2.0216,5.0008-.6735,1.7896-1.064,3.2984-.9041,3.6336-1.2768,5.7456-.6384,4.6107-.9576,6.916c.0355,1.9862-.0178,4.1116.1064,5.9584s.3889,3.8419.6384,5.1072 .5849,1.524.8512,2.4472 .6552,1.9917.7448,3.0856 .036,1.8052-.2128,3.4048-.9931,4.6634-1.2768,6.1712-.3545,2.055-.4256,2.8728 .0355,1.4174 0,2.0216-.0699,1.0599-.2128,1.596-.2596,1.0368-.6384,1.596-1.1346,1.1699-1.596,1.7024-.6914.9219-1.1704,1.4896-1.2047,1.2753-1.7024,1.9152-.7448,1.1526-1.2768,1.9152-1.3986,1.7871-1.9152,2.66-.7978,1.6486-1.1704,2.5536c-.3726.905-.7093,1.9152-1.064,2.8728-.2128,1.135-.4611,2.305-.6384,3.4048s-.3545,2.1079-.4256,3.192-.0177,2.1279 0,3.2984c.0398,2.6352.1665,5.2499.4256,7.8736 .4455,4.5114 1.1508,9.001 1.596,13.5128 .142,1.4386.1064,2.163.1064,3.5112s0,2.9072-.1064,4.5752-.2656,3.7209-.532,5.4264-.6019,3.2238-1.064,4.788-1.0416,3.2537-1.7024,4.5752-.9257,2.0076-2.2344,3.2984-3.7234,2.8545-5.5328,4.3624-4.0072,3.4753-5.32,4.6816-1.7911,1.7733-2.5536,2.5536-1.4313,1.305-2.0216,2.128c-2.1453,2.9904-2.7832,5.2606.2943,8.4908 1.3628,1.4304 2.3841,2.9765 4.2595,4.1531 4.0268,2.5264 5.6115,2.5424 9.8102.4433 1.8831-.9414 2.939-.8819 4.5752-2.5536 .8195-.8373 1.9151-2.2698 2.66-3.192s1.0614-1.54 1.8088-2.3408 1.7366-1.6836 2.66-2.4472c2.8516-2.3581 3.4633-3.5776 5.5328-6.7032 .8707-1.315 2.0376-2.0454 2.5536-3.2984s.3723-2.8168.4256-3.9368 .0357-1.5935-.1064-2.7664-.6203-1.7761-.7448-4.256 .3203-5.555 1.4896-8.9376c.4967-1.4372.8504-2.4277 1.4896-3.8304s1.5596-3.2081 2.3408-4.5752 1.5068-2.4287 2.3408-3.6176 1.7555-2.2698 2.66-3.5112 1.9328-2.6952 2.7664-3.9368 1.6299-2.4089 2.2344-3.5112 1.0445-2.0693 1.3832-3.0856 .5315-1.8737.6384-2.9792 0-2.3763 0-3.6176-.0354-2.5709 0-3.8304 .0885-2.6224.2128-3.724 .337-1.862.532-2.8728 .3896-2.25.6384-3.192 .4773-1.6282.8512-2.4472 .9044-1.6314 1.3832-2.4472 .939-1.648 1.4896-2.4472 1.2228-1.4885 1.8088-2.3408 1.0639-1.6667 1.7024-2.7664 1.5941-2.6735 2.128-3.8304 .7446-2.0387 1.064-3.0856 .514-2.1095.8512-3.192 .7436-2.3202 1.1704-3.2984 .8335-1.5782 1.3832-2.5536 1.2563-2.3545 1.9152-3.2984 1.1704-1.33 2.0216-2.3408 2.1812-2.6423 3.0856-3.724 1.6315-1.9152 2.3408-2.7664 1.2934-1.4702 1.9152-2.3408 1.3297-2.0566 1.8088-2.8728 .7094-1.3477 1.064-2.0216l1.064-1.4896 .6384.4256c.4256,1.2768.8156,2.2871 1.2768,3.8304s1.2219,3.9269 1.4896,5.4264-.0181,2.3901.1064,3.5112 .4079,2.0393.6384,3.192 .4604,2.6572.7448,3.724 .6913,1.7901.9576,2.66 .6384,1.7276.6384,2.5536-.3546,1.0279-.6384,2.2344-.8684,3.7737-1.064,5.0008-.1241,1.5941-.1064,2.3408 .1419,1.4542.2128,2.128 .2307,1.2882.2128,1.9152-.0146,1.0202-.3192,1.8088-.6381,1.3827-1.4896,2.8728-2.7472,4.4483-3.6176,6.0648-.8512,1.933-1.596,3.6176-2.109,4.4831-2.8728,6.4904-1.3635,3.9275-1.7024,5.5328-.4797,2.0443-.3192,4.0432 .9577,5.8165 1.2768,7.8736 .5141,2.7988.6384,4.4688 .2849,3.694.1064,5.5328-.6732,3.6149-1.1704,5.4264c-1.0001,3.6439-2.3311,7.4025-3.6176,10.9592-.6033,1.6678-1.3831,3.3691-1.8088,4.4688s-.3724,1.1172-.7448,2.128-1.2037,2.9182-1.4896,3.9368c-.3762,1.3404-.1955,2.7823-.1064,4.1496 .0532.8157.1061,2.1077.2128,2.8728s.1721,1.1772.4256,1.7024 .5783.9515 1.064,1.3832 .8819.8978 1.8088,1.1704 2.3047.3192 3.6176.4256 2.8187.0886 4.256.2128 2.8797.1569 4.3624.532 3.0921.9694 4.4688,1.7024 2.908,2.0569 3.724,2.66 .6639.7044 1.1704.9576 1.1499.4074 1.8088.532 1.4364.1419 2.128.2128 1.483.0872 2.0216.2128 .6737.2837 1.1704.532 1.1479.7075 1.8088.9576 1.3549.4781 2.128.532 1.5605-.1241 2.4472-.2128 2.0557-.065 2.8728-.3192 .984-.501 1.5172-.8743 .7927-.9461 1.3627-1.1851 1.2573-.3291 1.6517-.8352c1.3849-1.7773 1.1686-3.778.399-5.8663-.3437-.9328-1.6487-1.7546-2.909-2.1983s-3.1913-1.0284-4.4688-1.3832-2.3072-.284-3.192-.7448-1.2768-1.2945-1.9152-1.9152-1.0961-1.1855-1.9152-1.8088-1.9506-1.2768-2.9792-1.9152-2.181-1.2767-3.192-1.9152-1.9328-1.259-2.8728-1.9152-2.1608-1.5229-2.7664-2.0216-.6499-.5551-.8512-.9576-.3192-.8405-.3192-1.3832 .0707-.8147.3192-1.8088 .5306-2.4433 1.1704-4.1496 1.5064-3.7399 2.66-6.0648 2.6771-5.1592 4.256-7.8736c2.6208-4.5057 5.5469-8.0276 8.512-12.1296 1.0683-1.4779 2.3507-3.4044 3.0856-5.1072s.9395-3.3317 1.2768-5.0008 .5675-3.4037.7448-5.0008 .2483-3.4758.3192-4.5752 .0532-1.259.1064-2.0216-.0769-1.6482.2128-2.5536 .8484-1.8223 1.4896-2.7664 1.7189-2.0199 2.3408-2.8728 .9206-1.2914 1.3832-2.2344 1.0266-2.0846 1.3832-3.4048 .5851-3.0659.7448-4.4688 .0705-2.7981.2128-3.9368 .4079-1.8975.6384-2.8728 .3316-2.0269.7448-2.9792 1.0636-1.5599 1.7024-2.66 1.2927-2.6216 2.128-3.9368 2.0925-2.8728 2.8728-3.9368 1.1703-1.5427 1.8088-2.4472 1.4184-2.021 2.0216-2.9792 1.1853-1.82 1.596-2.7664 .6206-2.0035.8512-2.8728 .4252-1.3433.532-2.3408 .1241-2.4283.1064-3.6176-.1419-1.8264-.2128-3.5112-.1596-4.9299-.2128-6.5968c-.0762-2.3894-.3015-4.3533-.7448-6.7032-.3313-1.7562-.4887-3.2023-.4256-5.0008 .0355-1.0112.1596-2.2698.2128-3.4048 .0532-1.135.1419-1.9493.1064-3.4048s-.1419-3.3332-.3192-5.32-.2998-4.4073-.7448-6.5968-1.1859-4.5514-1.9152-6.4904-1.7904-3.8468-2.4472-5.1072c-1.2301-2.3605-1.255-2.7245-1.7024-5.32-.178-1.0325-.4771-2.2649-.8512-3.2984s-.9036-2.0024-1.3832-2.8728-1.0438-1.7524-1.4896-2.3408c-1.0335-1.3642-1.262-1.7065-1.9152-3.4048-.785-2.0412-1.064-2.5754-1.064-4.788l-.532-2.7664c-.461-1.064-1.0279-2.2326-1.3832-3.192s-.5844-1.6443-.7448-2.5536-.2128-1.7002-.2128-2.8728 .0885-2.9593.2128-4.1496c.1977-1.894.4548-4.6959 1.4896-6.2776 1.2595-1.9251 4.6785-6.0259 6.4904-8.0864s2.8727-2.7663 4.3624-4.256 3.3108-3.15 4.5752-4.6816 2.3491-3.1725 2.9792-4.4688 .4966-2.128.7448-3.192l-.2128-3.4048-.2128-2.2344 .7448-.1064 3.192,1.3832c1.4542.4966 3.1008,1.1343 4.3624,1.4896 2.7446.7728 6.5083,1.1784 8.7248,1.2768s2.66-.1241 4.0432-.2128 2.8542-.1595 4.256-.3192 2.7067-.2645 4.1496-.6384 2.9969-1.064 4.4688-1.596 3.1667-1.025 4.3624-1.596 2.0926-1.3655 2.7664-1.8088c1.6658-1.0959 1.9209-.6777 3.9368-.7448 1.066-.0355 2.5306-.1055 3.724-.3192s2.3926-.6203 3.4048-.9576 1.7369-.6379 2.66-1.064 1.9473-.9023 2.8728-1.4896 2.0641-1.4257 2.66-2.0216 .7045-.9576.8512-1.4896 .0534-1.044 0-1.596-.2305-.9388-.3192-1.7024-.1064-1.9146-.2128-2.8728-.3723-1.4853-.4256-2.8728 .071-3.8127.1064-5.4264 .1241-2.978.1064-4.256-.0167-2.2461-.2128-3.4048-.5122-2.353-.9576-3.5112-1.1165-2.3573-1.7024-3.4048-1.2058-1.9152-1.8088-2.8728c-.993-1.525-2.2666-3.2747-2.9792-4.5752s-.7448-1.8443-1.2768-3.192-1.33-3.3337-1.9152-4.8944-1.135-3.1566-1.596-4.4688-.8859-2.3557-1.1704-3.4048-.3546-2.0214-.532-2.8728-.0511-1.5996-.532-2.2344-1.4268-.9892-2.128-1.2768-1.4334-.3543-2.0216-.4256-.9099.1449-1.4896,0-.8864-.4432-1.9152-.8512-3.2273-1.2236-4.256-1.596-1.2971-.5658-1.9152-.6384-1.1417.3249-1.7024.2128-.9377-.6019-1.4896-.8512-1.2076-.5656-1.8088-.6384-1.0732.2487-1.7024.2128-1.3647-.3191-2.0216-.4256-1.4262-.2308-1.9152-.2128-.5989.1219-.9576.3192-.5602.8119-1.1704.8512-1.5396-.5137-2.128-.6384-.9601-.18-1.3832-.1064-.7019.2243-1.064.532-.7939.8085-1.064,1.2768-.3546.9397-.532,1.4896-.3369,1.2057-.532,1.8088-.353,1.2201-.6384,1.8088-.7956,1.1118-1.064,1.7024-.4775,1.2992-.532,1.8088 .0115.7677.2128,1.1704 .7084.8144.9576,1.1704 .2658.5317.532.9576 .6638,1.1958 1.064,1.596 .9355.4754 1.2768.7448 .1686.6976.7448.8512 1.8533-.2757 2.4472,0 .2042,1.0361.532,1.3832 .7493.4593 1.2768.532 1.2762.0589 1.8088-.1064 .7172-.6346 1.2768-.8512 1.1507-.319 2.0216-.4256 2.4114-.1773 3.192-.2128 1.0322.1097 1.4896,0 .796-.478 1.1704-.6384 .5779-.4553 1.064-.3192 1.1671.4674 1.596,1.064 .5498,1.4719.8512,2.3408 .8668,1.7471.9576,2.8728-.1589,2.3726-.4256,3.724-.727,2.8547-1.1704,4.3624-1.1167,3.2786-1.4896,4.6816-.5498,2.642-.7448,3.724-.2837,1.8443-.4256,2.7664v1.7024c-.993-.532-1.8957-1.0987-2.9792-1.596s-2.304-.9749-3.5112-1.3832-2.4169-.8851-3.724-1.064-2.7962-.3117-4.0432,0-2.1268,1.1342-3.192,1.8088-2.0253,1.9284-3.192,2.2344-1.6295-.1414-3.2984-.532-4.5927-1.2058-6.7032-1.8088-4.158-1.4345-5.9584-1.8088-3.3125-.3901-4.788-.4256-2.4063-.0362-4.0432.2128-4.0599.9574-5.7456,1.2768-3.1496.5671-4.3624.6384-1.9152-.1418-2.8728-.2128c-1.064-.461-2.0656-.6859-3.192-1.3832s-2.3939-1.862-3.5112-2.7664c-1.0766-.8715-4.1857-2.7161-4.3624-4.1496-.1667-1.3523.0692-4.9848.2128-6.2776s.3012-.7444.6384-1.3832 .5511-1.5789 1.3832-2.4472 2.6953-2.0215 3.5112-2.66 1.0746-.8073 1.3832-1.1704 .3357-.5257.4256-.9576-.0399-1.1203.1064-1.596 .4256-.6739.7448-1.1704 .8484-1.1111 1.1704-1.8088 .5668-1.5217.7448-2.3408 .3014-1.8391.3192-2.5536-.2128-1.2182-.2128-1.7024 .068-.8082.2128-1.1704 .5275-.4953.6384-.9576 .1073-1.0228 0-1.7024-.3854-1.7623-.6384-2.3408-.5494-.6379-.8512-1.064-.603-.9576-.9576-1.4896-.865-1.0376-1.1704-1.7024-.2448-1.3934-.6384-2.2344-1.0408-1.9439-1.7024-2.7664-1.5606-1.4719-2.2344-2.128-.9866-1.2011-1.8088-1.8088-1.7677-1.2211-3.0856-1.8088-3.4186-1.3111-4.788-1.7024-2.2152-.4787-3.4048-.6384-2.4644-.2484-3.724-.3192-2.3754-.1241-3.8304-.1064-3.5983.1063-4.8944.2128-2.127.2836-2.8728.4256-1.1057.1714-1.596.4256-.8864.7623-1.2768,1.064-.6924.6148-1.064.7448-.532,0-1.064,0z" fill="#1f1a17"/>
 <path d="m57.8283,331.158-.4572.0762-1.6764.762c-.6737.3034-1.4454.5554-2.3658,1.0584s-2.2395,1.2758-3.1446,1.9533-1.5146,1.3434-2.262,2.0937-1.5537,1.7393-2.2196,2.4047-1.1259,1.0068-1.7718,1.5839-1.1545,1.2928-1.7602,1.9362-1.1196,1.04-1.4116,1.5563-.5674,1.2931-.53,1.6243 .2049.636.3858.8252 .3261.0765.5875.0082c.5613-.1468 2.3556-2.2605 2.5582-2.0819l-.9531.9224c-.321.3125-.6845.6247-.9731.9529s-.6021.6896-.7533,1.0109-.1419.5911-.1278.861 .1188.5141.2106.7212 .1876.381.3342.5077 .3573.2003.5094.2217 .1769-.0002.3522-.1007 .4988-.3425.6866-.4952 .2824-.2826.4381-.4192 .3303-.2667.4954-.4001l.9798-.902c-.3799.3979-1.1334,1.16-1.4547,1.509-.4438.4821-.8813.7729-.8779,1.4842 .002.4305.247.7763.4667,1.026s.6172.545.9782.5979c.3841.0563 1.3076-1.1309 1.6467-1.3765l1.2631-1.3194c-.5747.5808-1.3328,1.6157-1.7376,2.0519s-.5071.4819-.5794.8656 .2695.8712.4675,1.1167 .6485.6348.9732.6795 .4811.038.8772-.2604 .7214-.8194 1.0541-1.1609 1.6675-1.4983 1.9757-1.8092l.7056-.8282c-.2019.2166-.1185.4474-.3437.6835-.8836.9264-2.1705,1.9376-2.6385,2.516-.6532.8072-.618,1.2612-.3156,1.9088 .3365.7208 2.1088.9698 2.742.9147 .4952-.043 1.3892-.2687 1.7841-.4955s.5459-.328.7711-.6288 .358-.6097.4987-.9004 .1626-.6993.3445-.8414 .1297.239.3977.2614 .6331.0153 1.1299-.1336 1.2719-.4102 1.8255-.7521 1.1008-.8316 1.4512-1.2722 .2263-.8918.6064-1.3153 1.0668-.762 1.6002-1.143l1.7498-2.066-1.445.3134-1.2334.0484-1.7284.3048-1.722-.0406c-1.1651-.1753-2.3328.1828-3.2719-.5067 2.8782-1.4717 4.6509-1.0984 9.6321-2.9301s4.0149-2.1861 5.334-3.5052 1.7392-2.9704 2.3622-4.191 .9144-2.0828 1.3716-3.1242l.2286-2.286c-1.3208.7366-2.9314,1.5606-3.9624,2.2098-1.4542.9157-1.8536,1.6369-3.5814,1.8288 .381-.508.417-.7598 1.143-1.524s2.2225-2.0955 3.2004-3.048 2.1509-1.0914 2.667-2.667 .127-4.5711.2286-6.1722 .0624-1.9762.381-3.429 .8995-3.6138 1.524-5.2578 1.2317-2.6793 2.2098-4.572 2.7305-5.0546 3.6576-6.7818c1.3848-2.5799 2.5456-4.56 4.4958-6.7818 1.0039-1.1437 2.61-2.5954 3.429-3.6576s1.0526-1.7619 1.4478-2.667 .7223-1.5775.9144-2.7432 .2286-2.9314.2286-4.191-.1651-2.4003-.2286-3.3528-.1143-1.5366-.1524-2.3622 .1615-1.9474-.0762-2.5908-.6174-.8715-1.2192-.9144-1.3494.2251-1.9812.6858-1.1298,1.2693-1.6764,1.9812-1.0155,1.5234-1.6002,2.286-1.3315,1.687-1.905,2.286-1.0412,1.0214-1.524,1.2954-.8304.3868-1.2954.3048-.93-.4097-1.2954-.762-.5581-.7734-.8382-1.2954-.546-1.13-.8382-1.8288-.6477-1.6254-.9144-2.3622-.4187-1.3833-.6858-2.0574-.6052-1.4915-.9144-1.9812-.5281-.8217-.9144-.9144-.6199.0335-.9906.4572-.7617,1.244-1.143,1.9812-.7349,1.1502-1.143,2.4384-.9899,3.4753-1.2954,5.2578-.3937,3.5429-.5334,5.4102-.3048,3.8074-.3048,5.7912 .254,3.9491.3048,6.096 .0508,5.1797 0,6.7818-.1521,1.9411-.3048,2.8194-.3556,1.4351-.6096,2.4384-.6349,2.298-.9144,3.5814-.5841,2.8689-.762,4.1148-.2159,2.3495-.3048,3.3528-.1143,1.6888-.2286,2.667-.3048,2.2604-.4572,3.2004-.0723,1.4375-.4572,2.4384-1.2573,2.451-1.8288,3.5052-1.0364,2.0506-1.6002,2.8194-1.1903,1.3735-1.7526,1.7526-1.1683.4299-1.524.4572-.3742.0826-.4572-.3048-.028-.5513.2286-1.2954 .5967-.9902.8382-1.4478 .4317-.876.6096-1.2954 .3048-.8128.4572-1.2192l.2286-.8382z" fill="#fff"/>
 <path d="m131.609,348.816c.2202.4561.5871.7857.8989,1.1235s.5393.6651.9671.8984 1.0405.3569 1.5348.4661 .8649.1264 1.4211.1873 1.4677.1486 1.9154.1779 .5118.0273.7687-.0017 .576-.0044.764-.1718 .1534-.431.211-.6964 .0895-.5947.1342-.892l.4522-.876c-.0703.2661-.1615.4383-.2109.7983s-.1571.9787-.0846,1.3525 .2812.5466.4995.7839 .4798.4244.7918.6195 .7027.3995 1.0716.5465 .7312.2574 1.1325.3326 .8023.1266 1.2642.1167 1.0822-.1486 1.4924-.1757 .6682.008.9644.013c.2962.005.539.0376.8127.0171s.5216-.0447.8227-.1399 .6895-.2599.9709-.4272 .5017-.3111.7028-.568 .4155-.6495.4775-.9399-.0233-.4906-.1232-.7171-.1869-.4002-.4599-.603-.7373-.4379-1.1407-.5859-.924-.2649-1.262-.2958-.5074.0434-.7318.1131-.399.2002-.5984.3004l-.6691.4897-.3365-.0101c.2844-.3267.4054-.6767.8534-.98s.92-.274 1.6347-.2243 .8602.299 1.2904.4486c.2947.1206.6166.2015.8843.3618s.4984.4175.7033.5891 .304.333.526.4406 .5032.2356.7718.1886 .5314-.2727.7133-.4488 .282-.368.3493-.5799 .1567-.4545.0433-.6559-.3148-.1992-.625-.3764-.8244-.458-1.2366-.687l-1.0994-.5336 .4315.1565c.1741.063.3724.1236.613.2214s.5347.2193.8303.3651 .7317.4156.9421.5091 .1859.1459.3076.0462 .2661-.3279.3097-.5519-.0098-.5444-.0591-.7345-.0968-.2557-.2299-.3782-.3652-.2251-.5477-.3376l-1.0172-.4113c.112-.0064.2045-.0573.3361-.019s.2354.1729.4225.2397 .5016.1994.6885.1577 .2561-.1484.2485-.3671-.1178-.5476-.2899-.82-.4491-.547-.7219-.7814-.6413-.4886-.9046-.6161-.5114-.1073-.6469-.1357l-.1665-.035c-.0513-.0185-.01-.0054-.1378-.0753s-.3846-.2178-.6294-.3439-.4814-.2979-.839-.4127-.9091-.213-1.2907-.2713-.7258-.0953-.9943-.0779-.4235.0788-.59.1809-.2611.2785-.3744.4104-.2034.2539-.3051.3809l-.4648.651c.0929-.2786.172-.5682.2789-.8356s.3067-.554.3615-.7662 .0165-.3262-.0429-.4662-.1006-.2136-.2959-.332-.5428-.2726-.8518-.3641-.697-.1316-.9912-.1819-.4454.0623-.7739-.12-.7558-.6258-1.1336-.9387c-.4319-.5392-.9043-1.2406-1.2956-1.6175-.4446-.4282-1.304-1.0342-1.8184-1.4127-.3988-.2933-.9699-.6939-1.5249-1.0872-.555-.3933-1.4479-.7519-2.147-1.1272s-1.335-.5377-2.0995-.9856c-1.5464-.906-2.2627-1.7469-3.4367-2.9335-.3919-.3961-.8919-.6993-1.3733-1.122s-1.1757-.9396-1.5136-1.4135-.4304-.7803-.4544-1.3467 .1276-1.0607.314-1.9553 .3265-1.9667.804-3.4095 1.2218-3.1793 2.0543-5.2266 1.8461-4.7432 2.9409-7.0566 2.3133-4.6422 3.6206-6.8088 3.0838-4.6007 4.2118-6.1715 1.7669-2.2002 2.5533-3.2488 1.5266-1.9249 2.1649-3.0413 1.2002-1.9413 1.6479-3.6268 .6773-4.2667 1.016-6.4001l.0375-3.5889-.3667-.5961c-.3275.9177-.7251,2.1063-.9824,2.7529s-.3121.9229-.5593,1.1213-.429.1672-.6265-.1694-.3829-.9009-.4331-1.6369 .0583-1.852.1347-2.7299 .0926-1.6681.3238-2.534 .4013-1.5873 1.0526-2.6194 1.6202-2.0315 2.8156-3.5105 3.3805-3.9391 4.3568-5.3639 1.102-2.0535 1.4623-3.1286 .4977-2.0765.6851-3.279 .3536-2.6997.4384-3.9284-.0395-2.4926.0699-3.4366 .3531-1.4724.582-2.1889 .7193-1.4947.7899-2.1049 .3319-1.1062-.3856-1.3848-2.2124-.1937-3.1808,0-1.6803.4341-2.4992,1.136-1.6488,1.9393-2.272,2.9536-1.1377,1.9441-1.4449,3.0963-.3484,2.5655-.3727,3.7197 .2439,2.5356.2272,3.1808-.1294.4963-.3254.6016-.3691.2275-.6463-.0796-.6408-.9028-.8768-1.608-.4319-1.7495-.5246-2.5779-.0197-1.5806-.0295-2.371l-.3238-.3267c-.3787.303-.7164.451-1.136.9088s-.9804,1.0904-1.3632,1.8176-.6437,1.7037-.9088,2.4992-.3333,1.6141-.6816,2.272-.909,1.3014-1.3632,1.5904-.5906.1947-1.136,0-1.354-.5603-2.0448-1.136-1.4976-1.8932-2.0448-2.272-.7307-.3962-.9088.2272 0,1.9691 0,2.9536c0,1.2118-.0759,2.4964 0,3.6352s.1489,2.1114.4544,3.1808 .9088,2.1206 1.3632,3.1808l1.5904,1.8176c-.3786,3.2566-.6435,6.4736-1.136,9.7696s-1.2117,6.6646-1.8176,9.9968c-1.4389,4.3926-2.8007,9.122-4.3168,13.1776s-3.2546,7.9857-4.7712,11.1328-2.8778,5.1499-4.3168,7.7248c-.2272,1.6662-.6056,3.5905-.6816,4.9984s.3791,2.6988.2272,3.408c-.3661.0666-.6004-.273-.97-1.0534s-.5497-1.9884-.9284-3.3516l-.2364-2.5273-.3644-1.4741c-.8824.9122-1.4277,2.0968-2.0448,3.408s-.8264,3.1162-1.643,4.4268-2.5377,2.0592-3.1537,3.2711-.3269,2.4461-.3379,3.5979 .0475,2.3961.272,3.286 .6959,1.4642 1.0482,1.9454 .5636.726 1.0332.8978 1.0197.1158 1.6302.077 1.3436-.206 2.0154-.3089c.7533.0405 1.3167.0782 2.2598.1215s2.2074-.0052 3.3993.1388 2.5572.5937 3.7319.7228 2.2938.1397 3.2896.0491 1.7631-.3931 2.6446-.5896l2.6678-.9734c-.5053.4892-1.0291.9143-1.5159,1.4678s-1.1032,1.2813-1.3966,1.8439-.3373.9426-.326,1.4582 .1726,1.0952.3928,1.5513z" fill="#fff"/>
 <path d="m121.857,306.344c1.229-1.9852 2.2921-3.5443 3.6868-5.9556s3.472-6.022 4.6794-8.508 2.05-4.2518 2.5524-6.381 .4968-4.3824.4254-6.2392-.2732-3.3049-.8508-4.8212-.9279-2.7587-1.6649-3.7572-1.7717-2.1984-2.7309-2.1984c-2.3368,0-5.3027,5.6309-5.9954,7.3532-1.6422,4.0831-2.2102,8.9767-2.0872,13.3496 .0474,1.6847.3049,3.1569.5672,4.254 .8284,3.4657 1.2762,5.4032 1.2762,9.0752l-.2836,3.2614 .4254.5672z" fill="#fff"/>
 <path d="m137.03,246.647c.0473-1.2762.0709-2.2452.1418-3.8286s-.0019-3.911.2836-5.672 .6615-2.5517 1.418-4.8212 2.1266-6.2144 3.1196-8.7916 1.8432-4.1589 2.836-6.6646 2.3381-5.832 3.1196-8.3662 1.3451-4.7783 1.5598-6.8064c.321-3.0329-.2658-7.1881-1.2762-10.0678-.7167-2.0427-2.4826-4.5343-3.8286-6.2392-.7114-.9011-1.5453-1.8559-2.2688-2.4106s-1.3176-.8775-1.9852-.8508-1.1186.4778-1.5598.9926-.6845,1.203-.9926,1.9852-.6373,1.6978-.8508,2.6942c-.6531,3.048-.4694,6.1604.1418,9.217 .4037,2.0187 1.3233,4.1585 1.8434,6.0974s.9214,3.6142 1.2762,5.5302c.6954,3.7557 1.093,6.7346.2836,10.4932-.332,1.5416-.8742,3.095-1.418,4.6794s-1.2052,3.2376-1.8434,4.8212-1.3471,3.1905-1.9852,4.6794-1.4398,3.0905-1.8434,4.254-.4957,1.8833-.5672,2.6942-.0516,1.4499.1418,2.127 .6105,1.318.9926,1.8434 .8508.8508 1.2762,1.2762l1.8434,1.5598 .1418-.4254z" fill="#fff"/>
 <path d="m158.442,231.19c-.1418.709-.0164,1.2608-.4254,2.127s-1.1739,2.071-1.9852,2.9778-1.8113,1.7433-2.836,2.4106-2.2008,1.2706-3.2614,1.5598-2.1126.2379-2.9778.1418-1.4923-.294-2.127-.709-1.0812-.9359-1.5598-1.7016-1.0355-1.6321-1.2762-2.836-.2844-2.6844-.1418-4.254 .495-3.3272.9926-5.1048 1.2756-3.7799 1.9852-5.5302 1.533-3.6337 2.2688-4.963 1.4792-2.282 2.127-2.9778 1.1052-1.0048 1.7016-1.1344 1.1344-.0266 1.5598.4254 .4727,1.3235.709,1.9852 .4242,1.3682.709,1.9852 .6178,1.3803.9926,1.7016 .7097.198.9926,0 .4508-.5589.4254-.9926-.3073-.7326-.5672-1.418-.7779-1.6207-.9926-2.6942c-.5138-2.569-.4898-5.594-.709-8.2244-.1418-1.7016-.26-3.545-.4254-5.672s-.3545-4.9861-.5672-7.09c-.4951-4.8973-1.316-9.0732-3.2614-13.6128-.4972-1.1602-.9217-1.7489-1.2762-2.4106s-.7273-1.0407-.8508-1.5598-.2751-.7067.1418-1.418c1.5379-2.6239 5.3262-6.0048 7.9408-7.5154 1.3129-.7586 3.8164-1.7699 5.3884-1.7016 .5723.0249.5532-.1108 1.1344.5672s1.6773,2.4331 2.2688,3.4032c1.9191,3.1475 3.2498,6.7463 3.9704,10.3514 .3312,1.6568.6851,3.7778.8508,5.672s.1418,3.7572.1418,5.672-.0709,4.0883-.1418,5.8138-.3552,3.2947-.2836,4.5376 .496,1.6764.709,2.836 .4961,2.7838.5672,4.1122c.1934,3.6156.3457,7.4327.2836,11.0604-.0235,1.3724-.0937,3.5628-.2836,4.963s-.42,2.374-.8508,3.4032-1.0396,1.7248-1.7016,2.6942-1.6071,2.2216-2.2688,3.1196-1.1817,1.5835-1.7016,2.2688-.9655,1.3671-1.418,1.8434-.9179.839-1.2762.9926-.4927.1826-.709-.1418-.3071-1.0156-.4254-1.5598-.1646-1.2496-.2836-1.7016-.2836-.6617-.4254-.9926v-.709h-.8508z" fill="#fff"/>
 <path d="m109.804,171.493c-.5797-.6806-1.9378-1.5597-3.2614-2.6942s-3.6581-3.4483-4.6794-4.1122-.7535-.1591-.9926.4254-.0469,1.4394-.2836,2.6942c-.6292,3.3357-1.5781,6.1374-2.9778,9.217-1.4705,3.2353-3.0466,6.2825-4.254,9.6424-.5438,1.5133-1.0623,2.8304-1.418,4.3958s-.6379,3.1587-.709,4.963 .189,4.466.2836,5.8138 .3077,1.6415.2836,2.2688-.0671,1.0872-.4254,1.418-.9096.4709-1.418.2836-.9639-.8437-1.2762-1.2762-.3269-.9157-.5672-1.2762-.5534-.6774-.8508-.8508-.5031-.329-.8508-.1418-.6349.5383-.9926,1.1344-.8019,1.413-1.1344,2.4106-.6613,2.4553-.8508,3.545-.3311,1.7415-.2836,2.9778 .3304,3.1404.5672,4.3958 .4474,2.0518.8508,3.1196 1.1783,2.0452 1.5598,3.2614 .4727,2.4813.709,3.9704 .4014,3.3775.709,4.963 .6585,3.2288 1.1344,4.5376 1.0544,2.3745 1.7016,3.2614 1.2096,1.5637 2.127,1.9852 2.0126.4975 3.1196.4254 2.2051-.2997 3.4032-.8508 2.7939-1.5901 3.6868-2.4106 1.2431-1.3873 1.5598-2.4106 .0443-2.492.2836-3.545 .7325-1.8193 1.1344-2.6942 .9647-1.3062 1.2762-2.5524 .3782-3.2141.5672-4.8212l.1418-2.6942 .9926.1418c.0946,1.3235.1417,2.7402.2836,3.9704s.3529,2.5697.5672,3.4032 .2665,1.307.709,1.5598 .5357.0523 1.2762-.4254 2.1951-1.5809 3.1196-2.4106 1.5782-1.387 2.4106-2.5524 1.8641-2.9243 2.5524-4.3958 1.1108-3.0959 1.5598-4.3958 .8031-2.1725 1.1344-3.4032 .5436-2.6232.8508-3.9704 .7325-2.8589.9926-4.1122 .3545-2.2451.5672-3.4032 .5434-2.4803.709-3.545 .3559-1.9679.2836-2.836-.2782-1.4549-.709-2.2688-1.0386-1.582-1.8434-2.5524-2.1507-2.3398-2.9778-3.2614-1.3942-1.5596-1.9852-2.2688-1.1987-1.311-1.5598-1.9852-.321-1.5174-.5672-1.9852-.3818-.834-.8508-.709-.797.4854-1.2762,1.2762-1.0159,2.0789-1.5598,3.4032-1.3225,3.3292-1.7016,4.5376-.3781,1.7962-.5672,2.6942l-.8508,1.5598-.8508.1418c.0946-.898.1179-1.7469.2836-2.6942s.5666-1.8618.709-2.9778 .1418-2.5278.1418-3.6868-.0469-2.4073-.1418-3.2614-.3073-1.2998-.4254-1.8434-.2361-.9668-.2836-1.418-.0959-.7964 0-1.2762 .3779-1.1101.5672-1.5598 .4702-.7459.5672-1.1344 .5797-.4538 0-1.1344z" fill="#fff"/>
 <path d="m102.736,242.804c-.4321.4322-.6167.694-1.2964,1.2964s-1.8976,1.6355-2.778,2.315-1.5823,1.2772-2.5002,1.7594c-2.6477,1.3909-4.7377,2.2902-7.2228.463-1.7521-1.2881-2.4403-3.9457-3.6114-5.7412-.533-.8173-1.7559-2.4256-2.6854-2.778-.4905-.186-.9223.0063-1.2964.1852s-.6689.4714-.8334.8334-.1726.8035-.0926,1.2038 .211.6883.5556,1.1112 .8026.7717 1.4816,1.389c1.5713,1.4285 3.0274,2.7681 4.4448,4.3522 .5247.5864 1.0372.8983 1.2964,1.4816s.2515,1.4044.1852,1.852-.3353.5296-.5556.6482-.3726.2585-.6482,0-.4418-.9504-.8334-1.389-.9623-.9205-1.4816-1.2038-1.1898-.4463-1.5742-.463-.4837.0645-.5556.3704 .1389.632.1852,1.2038c.1276,1.5766.1347,2.5952-.463,4.0744-.294.7275-.8025,1.6668-1.2038,2.5002-.463.8643-.9876,1.79-1.389,2.5928s-.7408,1.6205-1.0186,2.2224-.4157.9859-.6482,1.389-.3134.9949-.7408,1.0186-.6266-.3902-.926-.926-.6326-1.6199-.8334-2.2224-.2469-.926-.3704-1.389l-.2778-1.5742c-1.314-.1054-1.5908,1.1995-1.6668,3.3336-.0309.8666.0618,1.852.0926,2.778 .3704.8026.6618,1.6327 1.1112,2.4076s1.202,1.6021 1.5742,2.2224 .4769.7495.6482,1.4816 .324,1.9725.3704,2.8706-.1391,1.6938-.0926,2.5002c.0491.853.0251,2.4766.926,2.8706 1.1052.4834 2.0295-.6467 2.6854-1.4816 .5162-.6571.9707-1.586 1.2964-2.315 1.4538-3.2541 2.9078-6.3144 5.093-9.1674 2.4669-3.2207 5.2833-5.31 8.1488-8.0562 1.1143-1.0679 1.7569-1.8949 2.4076-2.778 .7436-1.0092 1.9499-2.6696 2.5002-3.7966 .7606-1.5577 1.3008-3.5962 1.7594-5.2782 .2317-.8497.3704-1.6668.5556-2.5002l.2778-1.6668z" fill="#fff"/>
 <path d="m114.555,155.682c-.0472-.8271.0248-1.6007-.1418-2.4815s-.2628-1.721-.8508-2.7651-1.3964-2.224-2.6233-3.4032-3.3321-2.6113-4.6794-3.6159-2.2957-1.3745-3.4032-2.4106-2.2911-2.5861-3.1905-3.7577-1.5983-2.5538-2.1979-3.2614-.8812-.7832-1.3471-.9217-.9533-.0132-1.2762.1418-.3637.3473-.4963.709-.2717.8091-.2836,1.418-.0057,1.5303.2127,2.1979 .529,1.0482 1.0635,1.7016 1.3078,1.5093 2.127,2.1979 1.7961,1.2643 2.7651,1.9143 1.997,1.288 3.0487,1.9852 2.2444,1.4529 3.2614,2.1979 2.1112,1.5796 2.836,2.2688 1.1848,1.2718 1.4889,1.8434 .1652,1.0271.2836,1.4889 .1531.9049.4254,1.2762 .7563.5672 1.1344.8508l1.0635.4254 .4254.0709 .3545-.0709z" fill="#fff"/>
 <path d="m111.577,131.859c.5672.1418 1.2017.354 1.7016.4254s.7034.1074 1.2762,0c1.2625-.2367 2.5449-.7758 3.7577-1.2053 .5672-.2009.9661-.5539 1.7725-.6381s2.1353-.0387 2.9778.1418 1.5964.6458 1.9852.9217c.8625.612 1.1118-.6469 2.5524-.4254 .6469.0995 1.472.4336 1.9852.9217s.7299,1.2318.9217,1.8434 .2485,1.1145.2127,1.7725-.2834,1.5588-.4254,2.127-.3887.8962-.4254,1.2762 .0256.7346.2127.9217 .4164.1116.6381-.0709 .4691-.6025.5672-.9217-.0838-.538 0-.9217 .1393-.9774.4963-1.3471 1.1157-.3731 1.4889-.709 .5406-.5957.6381-1.2053-.1064-1.6163-.0709-2.3397-.1009-1.3827.2836-1.9852 1.0681-1.1921 1.8434-1.3471 1.6356-.0881 2.4106.4963 1.5021,1.7468 1.9143,2.7651c.7835,1.9356.7536,5.0643.9926,7.1609 .1536,1.3471.4854,2.9345.4254,4.1122-.1189,2.3351-1.5744,6.3373-2.5524,8.3662-.6026,1.2501-2.9071,4.0925-3.8995,5.1048-.6066.6188-1.08.7633-1.7016.9217-1.7477.4453-4.8437.237-6.6646.2836-.0236-.6381-.1664-1.1857-.0709-1.9143 .3316-2.5305 1.346-4.0101-.4254-6.5228-.517-.7334-1.4172-1.3461-2.0561-2.0561s-1.2756-1.5237-1.7725-2.1979-.8941-1.1254-1.2053-1.8434-.3754-1.7538-.6381-2.4106-.3324-1.0224-.9217-1.4889-1.6307-.8037-2.4815-1.2053c-1.7278-.8155-3.2222-1.3788-4.6085-2.7651-.4899-.4899-.7074-.9541-.9217-1.3471s-.2363-.6617-.3545-.9926l.1418-1.7016z" fill="#fff"/>
 <path d="m156.953,151.286c-.6784.49-2.3382,1.1338-3.4032,1.5598s-2.043.7323-2.9778.9926-1.8456.5075-2.6233.5672-1.3849-.0447-1.9852-.2127-1.1761-.3323-1.5598-.7799-.5672-1.013-.5672-1.7016 .3191-1.3588.5672-2.2688 .7198-2.0742.9217-3.1905 .3073-2.2514.2836-3.4741-.175-2.7434-.4254-3.8286-.709-1.7134-1.0635-2.6233-.8256-1.8721-1.0635-2.836-.3785-2.0896-.3545-2.9069 .0983-1.1906.4963-1.9143 1.2643-1.5715 1.8434-2.3397 1.1689-1.5346 1.6307-2.2688 .8716-1.3981 1.1344-2.127 .366-1.437.4254-2.1979c.1175-1.5061-.2368-2.8885.2127-4.3958 .2031-.681.6145-1.3234.9217-1.9852l1.8434-1.8434c.2836.4491.5431.7791.8508,1.3471s.6962,1.2617.9926,2.0561 .6253,1.6827.7799,2.6942 .2012,2.3216.1418,3.3323-.3427,1.8789-.4963,2.6942c-.3478,1.8464-.822,3.7221-.9217,5.6011-.1345,2.535-.0669,4.6476.7799,7.0191 .3548.9936 1.0635,2.6232 1.418,3.545s.6477,1.3355.709,1.9852c.1161,1.2311-.275,1.9969 0,3.4032 .3319,1.6975.798,1.6664 1.4889,3.0487 .2796.5594.4254,1.3151.4254,1.8434s.253.7153-.4254,1.2053z" fill="#fff"/>
 <path d="m143.482,124.84c.4254-.4726.8743-.9925 1.2762-1.418s.8669-.7087 1.1344-1.1344 .3305-.9319.4254-1.3471 .2432-.8448.1418-1.1344-.3821-.2471-.6381-.2836-.5741-.0674-.8508.0709-.4936.3978-.709.709-.4124.6579-.5672,1.1344-.2363,1.1344-.3545,1.7016l-.0709,1.9143 .2127-.2127z" fill="#fff"/>
 <path d="m128.947,117.254c1.919-1.7866 6.4512-3.3278 9.0043-3.0487 .7774.085 1.2334.3117 1.6307.709s.4945.9674.5672,1.4889 .0863.8873-.1418,1.5598-.7273,1.7175-1.2053,2.4106c-.751,1.089-2.2477,2.4999-3.3323,3.2614-.5613.3941-1.1946.6803-1.6307.7799s-.6028.0223-.8508-.2127-.4232-.6855-.4963-1.0635c-.2102-1.0872.3009-1.4684-.8508-2.4106-.4036-.3302-.9924-.4608-1.418-.6381s-.8357-.2702-1.1344-.4254-.5198-.2334-.6381-.4963-.085-.594 0-.9217 .1399-.6608.4963-.9926z" fill="#fff"/>
 <path d="m154.897,113c0-.5908.0236-1.2636 0-1.7725s-.0463-.8941-.1418-1.2762-.3071-.6731-.4254-.9926-.2007-.5307-.2836-.9217-.3456-1.0487-.2127-1.418 .4272-.4187.8508-.3545 .9964.3366 1.4889.709 1.0575.9482 1.418,1.4889 .7347,1.0458.709,1.7016-.5672,1.2762-.8508,1.9143l-1.6307.9926-.9217-.0709z" fill="#fff"/>
 <path d="m95.1645,126.167c-.0304-.3648.019-.6427-.1818-1.0908s-.4505-.9348-.9999-1.5453-1.5755-1.424-2.2725-2.0907-1.389-1.4807-1.9089-1.9089-.7969-.5562-1.1817-.6363-.783-.0943-.9999.1818c-.2015.2565-.0067,1.9308.0909,2.2725 .1231.431.2902.9703.6363,1.3635s.8939.5909 1.3635.909 .9384.5901 1.4544.9999 1.1952.9982 1.6362,1.4544 .6666.8484.9999,1.2726l.4545.7272c.2188-.0248.4773.0865.6564-.0746s.2101-.4338.2526-.7435 .0304-.726 0-1.0908z" fill="#fff"/>
 <path d="m123.562,128.754c-.1706-.5461-.1614-1.1619-.512-1.6384s-.9195-.7412-1.4848-1.0752-1.2276-.6481-1.8944-.9216-1.5103-.5034-2.0992-.7168-1.0527-.3468-1.4336-.5632-.6471-.4269-.8192-.7168-.29-.6002-.1536-.9216 .3999-.6233.8704-.768 1.2202-.1743 1.792-.0512 .9969.7041 1.536.768 1.1288-.1113 1.4848-.4096 .5196-.5908.4096-1.1776-.3801-1.42-1.024-2.0992-1.9006-1.4368-2.7136-1.8432-1.2068-.4431-2.0992-.5632-2.1145.0617-3.2256-.1536-2.2955-.7766-3.3792-1.1264-2.1538-.5611-3.1232-.9728-1.8517-1.0154-2.6624-1.4848-1.4163-1.0033-2.2016-1.3312-1.7837-.8912-2.4576-.6144-.544,1.012-.4096,1.792 .6662,1.8909 1.1776,2.6624 1.2958,1.253 1.8432,1.8944 1.2131,1.4217 1.4336,1.9456-.0404.7407-.2048.9728-.227.2647-.6656.256-1.4142-.4172-1.8944-.3072-.5632.4646-.5632.8704-.0711.5936.5632,1.28 1.9102,2.0115 3.1744,2.7648 2.632,1.1934 4.3008,1.6896 3.9416.9386 5.6832,1.28 3.3608.5972 4.7616.768 2.7635.1621 3.6352.256 1.0582.2048 1.5872.3072l.768-.0512z" fill="#fff"/>
 <path d="m117.369,114.217c.5728-.2545.9355-.45 1.1064-1.0142s-.0138-1.33-.1844-2.0284c-.3103-1.2703-1.1144-3.2289-1.9362-4.2412-.5395-.6646-1.2231-1.2406-2.0745-1.7979s-2.0121-1.0752-2.9965-1.5213c-1.9896-.9016-3.9667-1.5504-6.1313-1.8901-1.3624-.2138-3.6907-.5589-4.5178.8298-.6504,1.0921-.7189,2.1422-.3227,3.3653 .2965.9154 1.4548,2.318 2.0745,3.0426 .5011.5859 1.0731,1.1888 1.7518,1.7518 1.5621,1.2958 3.2824,2.2044 5.1632,2.9504 1.9781.7846 3.7088,1.1437 5.8547,1.0142 .898-.0542 1.64-.2065 2.2128-.461z" fill="#fff"/>
 <path d="m193.188,19.6555c-.1684-.1386-.6334-.4765-.9571-.6193s-.6527-.2658-.9571-.2252-.5175.1969-.7319.4504-.3377.6284-.5067,1.0134-.3097.7882-.5067,1.2949-.4692,1.2199-.6756,1.7453-.3752.9942-.563,1.4075-.4032.7124-.563,1.0697-.3091.7296-.3941,1.0697-.1322.7217-.1126.9571-.0176.35.2252.3941 .6454.0151 1.0134-.1689 .7208-.4956 1.126-.9008 .9464-1.0397 1.2949-1.5201 .599-.9159.7882-1.3512 .2346-.7974.3378-1.2386 .2252-1.0504.2815-1.4075-.0562-.5171.0563-.7319 .4183-.2671.563-.4504 .2339-.4861.2815-.6193 .1684-.0303 0-.1689z" fill="#fff"/>
 <path d="m198.537,18.4169c-.2855-.2234-.993-.2815-1.4075-.2815s-.6765.089-1.0134.2815-.6381.5537-.9571.8445-.7457.6222-.9571.9008-.2246.4375-.2815.7319c-.1226.6344-.0512,1.1116-.2815,1.7453-.1501.413-.4035,1.0697-.6756,1.7453s-.6662,1.5574-.9571,2.3083-.6189,1.6408-.7882,2.1957-.2448.7836-.2252,1.126 .1123.6292.3378.8445 .5127.3185.9008.3378 .935-.1023 1.3512-.2252 .7904-.1711 1.126-.5067 .5706-.8399.7882-1.4075 .319-1.3135.5067-1.9705 .4781-1.3775.6193-1.9705 .197-1.0208.2252-1.5764-.0846-1.2913-.0563-1.7453 .0221-.6089.2252-.9571 .7223-.7879.9571-1.0697 .3539-.3876.4504-.6193 .3981-.5085.1126-.7319z" fill="#fff"/>
 <path d="m203.941,19.2614c-.2814-.0938-.5245-.1403-.8445-.2815s-.7671-.4401-1.0697-.563-.5027-.1888-.7319-.1689-.334.0811-.563.2815-.5798.5882-.7882.9008-.3372.6267-.4504.9571-.1596.685-.2252,1.0134c-.1602.802-.3299,1.2273-.6756,1.9705-.1877.4035-.4222.9099-.6193,1.4075s-.3472.9947-.563,1.5764-.5439,1.3219-.7319,1.9142-.3187,1.133-.3941,1.6327-.0944.9794-.0563,1.3512 .0146.6311.2815.8445 .6101.2815 1.126.2815 1.3505.0874 1.9142-.2815 .9049-1.0757 1.1823-1.7453 .2909-1.4075.4504-2.1957 .3941-1.8574.5067-2.5335c.1809-1.0863.2081-1.8383.6756-2.8713 .2255-.4982.6287-1.2292.8445-1.6327s.3003-.5254.4504-.7882l.2815-1.0697z" fill="#fff"/>
 <path d="m213.118,22.2453c-.3944-.1972-1.1632-.5722-1.8016-.8445s-1.4263-.5536-2.0268-.7882-1.0661-.5327-1.5764-.6193-1.0232-.0254-1.4075.1126-.5935.3835-.7882.6756-.2715.644-.3378,1.0134-.0563.844-.0563,1.1823 .1459.5557.0563.8445-.281.2994-.563.7882-.7126,1.4441-1.126,2.1394-1.0208,1.4132-1.3512,2.0268-.4873,1.1801-.6193,1.6327-.1595.7288-.1689,1.0697-.0255.6612.1126.9571 .2714.6664.6756.7319 .9523-.0478 1.4075-.3941 .6843-.9938 1.1823-1.5764 1.3417-1.4074 1.8016-1.9142 .7882-.7883.9571-1.126 .0188-.4595 0-.7882-.075-.7881-.1126-1.1823l.0563-.6756c.3003.2065.5347.3471.9008.6193s.8014.7382 1.2949,1.0134 1.0508.5144 1.6327.6193 1.2813.106 1.8016,0 .9039-.3707 1.2386-.6193 .506-.5338.7319-.8445 .3926-.7205.6193-1.0134 .4911-.5682.7319-.7319 .4667-.2582.6756-.2252 .2882.211.3941.3941 .2558.4203.2252.6756c-.0771.6438-.8041.9888-1.0697,1.5201-.173.3461-.2998.744-.3378,1.2386s-.0785,1.0488.1126,1.689c.917,3.0723 3.1623,5.9649 4.3351,9.008 .9566,2.4821 1.1601,4.2827 1.2949,6.9812 .1208,2.42.7806,4.4324 1.8579,6.5871 .2825.565.5495.6834.6756,1.0134s.1395.651.0563.9008-.1706.3615-.5067.4504-.8899-.0096-1.4075.0563-1.1552.1282-1.689.3378c-2.1736.8535-3.895,3.3529-4.1099,5.63-.0659.6979-.0563,1.35 0,2.252 .1861,2.9831 1.0499,5.1505 2.8713,7.4879 .5655.7257.9721,1.1605 1.689,1.7453 2.3841,1.9448 3.7878,2.0866 6.756,2.3646 .6073.0569.9576.1284 1.3512.3941s.7333.7218.9008,1.126 .1338.8041.0563,1.1823-.0732.6686-.5067,1.0134-1.2341.7022-1.9705.9571-1.5719.4593-2.4209.563-1.723.1222-2.6461.0563-1.9367-.1955-2.8713-.4504-1.892-.6647-2.7024-1.0697-1.4823-.9101-2.1394-1.3512-1.2738-.9746-1.8016-1.2949-.9007-.4128-1.3512-.6193l-1.2386-.1126c-.0375.2816-.1798.4411-.1126.8445s.1487.7852.5067,1.5201c.899,1.8455 1.9025,3.4123 3.378,4.8418 .6024.5836 1.2156,1.1045 1.8579,1.5201s1.1784.7567 1.9705.9571 1.8603.3113 2.7024.2252 1.6435-.4372 2.252-.7319 .9947-.7413 1.3512-1.0134 .4522-.6077.7882-.6193 .3673.4008.8445.563c1.334.4534 2.9479.5596 4.3351.3378 .7754-.124 2.6658-.6928 3.2091-1.2949 .3684-.4083.6538-1.0077.7319-1.6327s-.1304-1.3754-.2815-1.9705c-.4892-1.9269-.7181-3.1884-.7882-5.2922-.1075-3.2282.1907-6.1514.3378-9.3458 .0658-1.4284.0474-2.8842-.0563-3.941s-.3179-1.6387-.563-2.3646-.6193-1.3418-.9008-1.9705-.4779-1.2091-.7882-1.8016c-.6307-1.2043-1.4022-2.3268-2.0268-3.5469-.4035-.7882-.985-2.0451-1.4638-2.9276-1.0578-1.9498-1.8938-3.6828-2.7587-5.7426-.3941-.9385-.685-1.4919-1.0134-2.252s-.6381-1.5483-.9571-2.3083-.6191-1.3506-.9571-2.252-.7695-2.2614-1.0697-3.1528c-.8096-2.4041-1.1078-5.4967-2.0268-7.7131-.1669-.4025-.4066-.6758-.7882-.9008s-.9837-.3094-1.4075-.3941-.7208-.1126-1.126-.1126-.8991.1126-1.2949.1126-.7915-.0359-1.0697-.1126-.1686-.1406-.563-.3378z" fill="#fff"/>
 <path d="m215.21,35.8901c.3809.1995.7358.238 1.1424.5984s.904.975 1.2512,1.5232c.5775.9118 1.2421,2.3044 1.632,3.3184 .2278.5924.3988,1.3139.544,1.9584s.2358,1.2692.3264,1.904c.1601,1.1219.3131,2.2914.272,3.4272-.0249.6891-.0568,2.0212-.6528,2.5024-.269.2172-.5813.2704-.9248.1088-.7809-.3674-1.2907-1.5685-1.5232-2.3392-.4005-1.3277-.3122-2.7672-.4352-4.1344-.0816-.907-.1995-1.9219-.3264-2.8288s-.2719-1.8217-.4352-2.6112c-.2109-1.0201-.4857-1.9763-.8704-2.9376v-.4896z" fill="#fff"/>
 <path d="m204.37,79.7229c.0681.4761.0278,1.0052.204,1.428s.1501.652.816,1.02 2.226.5187 3.06,1.122c1.2706.9191 2.3829,2.6041 1.428,4.08-.3948.6102-1.0272,1.2961-1.938,1.734s-1.9475.7988-3.366.816-3.303-.2518-4.998-.714-3.4333-1.4278-5.1-2.04-3.3661-1.1221-4.896-1.632-3.2146-.9106-4.284-1.428c-1.3168-.6371-2.8288-1.7318-2.04-3.366 .4985-1.0327 2.8301-2.1626 3.876-2.346 1.7507-.307 4.9103-.132 6.732,0 3.0243.219 5.957,1.1753 8.976,1.53l1.53-.204z" fill="#fff"/>
 <path d="m205.391,69.0129c.12.4629.4398.8902.51,1.224s.1404.4529-.102.714c-1.1004,1.1853-2.8434.6988-4.284.51-2.1566-.2827-3.7967-.9462-5.814-1.632-1.8374-.6246-3.9763-1.2625-5.916-1.326-1.0503-.0344-1.6642.1697-2.754.408-2.1261.4649-4.1818,1.222-6.324,1.632-1.4894.285-3.0757.4428-4.59.51-1.2579.0558-2.7252.1283-3.978,0-.6656-.0682-1.786-.1981-2.244-.408s-.3801-.3813-.204-.714 .5027-.6587 1.122-1.02 1.6077-.8479 2.55-1.122c1.732-.5038 4.2121-.9072 6.018-1.02 5.5478-.3465 5.5925-2.1344 9.282-5.406 .9059-.8033 1.7999-1.5043 2.754-1.938s1.8216-.5776 2.856-.612 2.1009.1173 3.264.408 2.611.8126 3.672,1.326 2.0152,1.2005 2.652,1.734 .8917.5244 1.122,1.428c.4355,1.7087-.0397,3.5768.408,5.304z" fill="#fff"/>
 <path d="m182.875,62.3304c-.5684.4928-.8293.9067-1.7055,1.4781s-2.4568,1.4752-3.5247,1.9329-1.952.7185-2.8425.7959c-2.3977.2084-3.3203-1.0419-5.0028-2.3877-.3844-.3075-.7951-.8162-1.2507-.6822s-.4717.5616-.6822,1.2507-.1217,1.8906-.5685,2.8425-1.2265,1.8705-2.0466,2.7288-1.7411,1.5901-2.8425,2.3877-2.7271,1.7993-3.7521,2.3877-1.6482.8147-2.3877,1.137-1.5372.4628-2.0466.7959-.7498.7974-.9096,1.137-.3772.6612 0,.7959c1.0256.3662 2.9519-.8322 3.9795-1.0233 .5886-.1094 4.2526-.5039 4.2069,0-.0721.7935-.1607.9204-1.9329,2.3877s-6.1337,4.7335-8.6412,6.3672-4.1791,2.4787-6.3672,3.411c-3.9044,1.6635-7.5706,2.735-11.8248,2.1603-2.5082-.3388-4.4341-1.7433-6.2535-3.411-.6873-.63-.9372-.9784-1.137-1.4781s-.2506-.9049 0-1.3644 .6884-.8087 1.3644-1.137 1.5918-.4738 2.6151-.7959 2.6929-.7308 3.5247-1.137 1.1833-.7525 1.3644-1.2507-.044-.881-.4548-1.2507-1.0951-.6981-1.8192-.7959-1.762.1516-2.3877.2274-1.0189.3195-1.3644.2274-.3863-.4108-.3411-.6822 .1433-.4116.5685-.6822 1.2885-.5874 1.9329-.9096c2.1742-1.0871 2.8945-1.3763 1.9329-3.9795-.3225-.8728-.812-2.2687-1.3644-3.2973s-1.2468-2.023-1.9329-2.8425c-1.3425-1.6035-2.582-2.4148-4.548-3.0699-.6857-.2285-1.2346-.1253-1.7055-.3411s-.819-.4805-1.0233-.9096-.3014-.9984-.1137-1.4781 .514-.8061 1.137-1.137 1.4356-.5866 2.5014-.7959 2.4063-.3222 3.8658-.4548 3.4093-.3032 4.8891-.3411 2.572-.0574 3.9795.1137 3.1232.5486 4.4343.9096 2.5172.9845 3.411,1.2507 1.1308.3221 1.9329.3411c2.9791.0705 3.6875-1.1059 6.2535-2.1603 1.3917-.5719 3.2492-1.173 4.8891-1.4781s3.3672-.3601 4.8891-.3411 2.6694.1891 4.2069.4548 3.1976.567 5.0028,1.137 4.4073,1.8357 5.7987,2.274 1.6677.2275 2.5014.3411l1.5918.3411z" fill="#fff"/>
 <path d="m103.33,7.6784c-.4906-.049-.8691.2146-1.265.6325s-.7163,1.3064-1.012,1.771-.5668.649-.759,1.012-.1476.5269-.3795,1.1385-.6528,1.7694-1.012,2.53-.7454,1.5654-1.1385,2.024-.8209.4208-1.1385.6325c-.6733.4489-1.2467,1.4342-.8855,2.277 .1369.3194.6022.3557.759.759s.3102,1.0129.1265,1.518-.5781.8986-.8986,1.4114-.6519,1.1072-.9468,1.7606c-.5115,1.1331-1.121,2.0843-1.8231,3.153-.2071.3151-.1711.6172-.1265.8855 .1194.7167.9476.6952 1.602.6545s1.1839-.4748 1.8135-.6545c.3028-.0865.5308-.0912.759,0 .3877.1549.562.7323 1.012.8855 1.9463.6625 1.6748-.5257 1.926-.772 .2226-.2184.4683-.1542.6169.0687s.0763.8371-.0129,1.0828-.158.5165-.506.6325-.903.0637-1.3915,0-1.0743-.2951-1.518-.3795-.8408-.2257-1.1385-.1265c-.3244.1081-.5632,1.0792-.6325,1.3915-.0845.3805-.2317,1.113-.253,1.518-.0159.304-.0061,1.0529.3795,1.1385 .2022.0449.5271,0 .8855,0s.9267-.0211 1.265,0 .5052.1054.759.1265 .4389.064.759,0 .7163-.4498 1.1385-.3795 .8571.4776 1.1385.759 .4818.5937.506.8855-.1141.5119-.3795.6325-.6892.0645-1.012,0-.48-.2942-.8855-.3795-.9466-.0207-1.518-.1265-1.3362-.4629-1.8975-.506-1.0619.1212-1.3915.253-.4556.2788-.506.506c-.1191.5371.417,1.114.8855,1.1385 .4076.0214 1.2437-.1054 1.6445-.1265s.4592-.0642.759,0 .7285.1833 1.012.3795 .6693.4633.6325.759c-.0226.1816-2.8162,1.7702-3.414,2.6835-.5947.9085-.7721,1.6741-.128,3.3885 .64,1.7034 2.5703,1.6783 4.301,1.1385 1.0548-.329 1.9163-.871 2.9095-1.012 1.4412-.2046 3.351-.2608 4.807-.3795 1.0336-.0843 1.9865.139 2.783-.1265 1.0909-.3636 2.5293-1.9538 2.9095-3.036 .7754-2.207.3507-3.4453-.1265-5.566-.1898-.8435-.4213-1.7462-.506-2.53-.1081-1.0003-.3101-2.9482.759-3.542 .6249-.3471 1.8288-.2514 2.6565-.506s1.5584-.6316 2.277-1.012 1.4937-.862 2.024-1.265 .876-.6791 1.1385-1.1385 .4019-1.0693.3795-1.518-.3088-.7709-.506-1.012-.4569-.182-.6325-.3795-.4258-.3656-.3795-.759 .4217-.9065.6325-1.3915c.543-1.2493.8562-2.1317.759-3.542-.0426-.6177.0245-1.1058-.3795-1.6445s-1.1958-1.0088-1.8975-1.3915c-1.7456-.952-3.96-1.5467-5.819-2.277l-6.4515-2.024c-.8174-.3344-3.3935-1.9587-4.048-2.024z" fill="#fff"/>
 <path d="m123.701,29.2509-1.548.344c-.8617.1915-1.9379.2448-2.752.516-.8029.2675-3.494,1.3872-3.784,2.064-.1434.3346-.2513.6738-.2799,1.3906-.0659,1.6539.1304,3.2147-.0641,4.8874-.0717.6166-.1573,1.2736-.258,1.72s-.1718.5584-.344.946c-.3672.8265-.715,1.1594-.602,2.064 .3727-.0286.6829.03 1.118-.086s.9309-.3436 1.462-.602 1.2311-.6297 1.72-.946 .9507-.648 1.204-.946c.4099-.4822.4672-1.8007.602-2.408 .1146-.516.0555-.7694.344-1.462s.946-1.849 1.376-2.666 .958-1.6425 1.204-2.236c.3107-.7497.3867-1.7723.602-2.58z" fill="#fff"/>
 <path d="m125.728,27.4605c.9855-.4012 1.2556-1.8572 2.1777-2.3058 .8123-.3952 2.0446.2002 2.5193.8967 .7714,1.1317.9505,2.1747.6832,3.5441-.2105,1.0782-1.3011,2.5384-2.3058,3.0744-.5369.2864-1.2541.18-1.8361.2989-.3155.0645-.5001.139-.6832.2562-.38.2432-.5854.7563-.5978,1.1956-.0073.2571.0399.5334.1708.7259s.3022.2896.5551.3416c.4302.0884 1.3284-.0248 1.708-.2562 .675-.4115 1.553-1.3531 2.0496-1.9642 .3716-.4573.8098-1.0791 1.1102-1.6226s.5325-1.0769.6832-1.6226c.385-1.3943.4421-3.4323-.2135-4.7824-.2482-.5111-.6702-.9272-1.0248-1.2383-.6562-.5757-1.3284-.727-2.1777-.6405-.6373.0649-1.1948.3126-1.708.6832-.4667.3371-1.0062.7841-1.3664,1.2383-.3161.3986-.6153.9411-.6832,1.4518-.0292.2196.025.3838.0854.5124 .1321.2812.5965.3183.854.2135z" fill="#fff"/>
 <path d="m117.376,49.6924c-.2598-.1485-.466-.4966-.6409-.8381-.2879-.5622-.6261-1.6298-.5423-2.2678 .0429-.3266.139-.5774.3944-.7888s.6899-.2793 1.0353-.3944c.8806-.2934.9997-.4748 1.7255-.9367 .2753-.1752.6888-.3432.9367-.3944s.3732-.0911.493.0986 .1069.5233.0986.8381c-.0305,1.1583-.5893,1.8748-1.2325,2.8101-.1814.2638-.4268.5582-.6409.7888-.1164.1254-.8137.9985-.8874,1.0353-.1861.0931-.4797.1978-.7395.0493z" fill="#fff"/>
 <path d="m116.397,57.8304c-.3216-.2251-.7315-.4086-.965-.6755s-.3361-.5525-.386-.8685c-.0665-.4214.0664-1.3209.386-1.6405 .1883-.1883.519-.5265.772-.386 .3847.2136-.0582,1.5853-.0965,1.93-.0323.2906 0,.4504 0,.6755l.2895.965z" fill="#fff"/>
 <path d="m113.117,58.4094c0-1.3154-.4753-2.0916-1.544-2.9915-.3082-.2595-.6663-.6533-1.158-.772-.6539-.1578-1.9827-.0062-2.509.4825-.2374.2204-.4309.5589-.4825.8685s-.0401.6174.193.8685c.6521.7025 1.4536.3293 2.2195.4825 .8598.172 1.5929.5347 2.509.6755l.772.386z" fill="#fff"/>
 <path d="m131.872,35.5c-.4244.3745-.8731.7233-1.2733,1.1235-.8591.8591-1.6077,1.8324-2.4717,2.6964-.5743.5743-1.4188,1.1806-2.0972,2.0223s-1.4086,1.9936-1.9474,2.996-.8857,1.8956-1.2733,2.996-.7489,2.4337-1.0486,3.5952-.4869,2.2719-.749,3.3705-.6116,2.4465-.8239,3.2207-.271,1.0663-.4494,1.4231c-.2917.5834-.7893,1.0845-1.6706,1.2313-.395.0658-.9592-.1383-1.2505.042s-.4342.4413-.3745.749c.1153.5947.7817,1.2727 1.6628,1.2658 1.9091-.0151 2.3024-1.2471 2.981-2.9885 .2894-.7427.8731-1.8836 1.4231-2.8462s1.1983-1.9222 1.8725-2.9211 1.548-2.1721 2.1721-3.0709 1.1356-1.6223 1.5729-2.3219 .7111-1.1724 1.0486-1.8725 .6616-1.5354.9737-2.3219 .6239-1.5345.8988-2.3968c.6686-2.0973.7732-3.8087.8239-5.992z" fill="#fff"/>
 <path d="m133.217,43.4263c-1.1861,1.3687-1.9461,2.3966-2.7094,4.0641-.3733.8155-.794,1.714-1.0602,2.5916s-.4512,1.7223-.5301,2.6505c-.1194,1.4053.1555,3.3923 1.0491,4.5347 .7376.9428 1.7063,1.0663 2.8377.8482 .5656-.109 1.1746-.5665 1.6262-.7432 .6745-.2639 1.7949-.3429 2.4974-.1633 .9598.2455 1.8931.788 2.8861,1.0602 .6087.1669 1.6157.4797 2.1204.5301s.7105-.1037.5885-.4014c-.6752-1.6477-2.248-2.2522-3.1821-2.9923-1.6772-1.329-4.1481-3.4511-4.9703-5.4401-.5422-1.3114-.2713-3.4225-.6829-4.8771l-.4704-1.662z" fill="#fff"/>
 <path d="m102.962,26.3157c-.07.1985-.2355.2834-.4284.306s-.379-.0035-.612-.1836-.4444-.6186-.7344-.8568-.6625-.3465-.9792-.5508-.6864-.3995-.918-.6732-.3355-.598-.4284-.918-.0181-.6766-.1224-.9792-.3048-.5594-.4896-.7956-.4552-.3611-.612-.612-.2745-.5627-.306-.8568 .015-.6205.1224-.8568 .3264-.3264.4896-.4896 .3115-.3744.4896-.4896 .3343-.2291.5508-.1836 .4272.2641.612.4284c.5318.4728.4348.6103 1.224.6732 .2558.0204.4839.0727.7956,0 1.0503-.2449 2.2477-.8966 3.3117-.8024 .4693.0416.8677.0568 1.3395.2516s.8974.4691 1.3464.7344 .9977.5901 1.3464.8568c.5944.4546 1.1713.945 1.7748,1.4076 .3071.2354.6078.484.7956.7344s.254.4952.306.7344 .0957.4938 0,.6732-.1784.2555-.4896.2448-.9077-.2244-1.2852-.306-.6426-.1122-.9792-.1836-.6543-.2448-1.0404-.2448-.9268.1174-1.224.2448c-1.0842.4647-1.1008.7578-2.3868.7956-.3469.0102-.7108.0096-.9792.0612s-.4628.1382-.612.2448-.2025.1447-.2448.3672 .1331.1978.306.4896 .1312.5359.0612.7344z" fill="#1f1a17"/>
 <path d="m108.525,22.5532c-.3314-.7401-.4064-.993-.8307-1.5553s-1.1455-.9333-1.7271-1.0865-1.2302-.23-1.7068-.0232-.8428.4067-.977.7424-.0641.6601.2018.898 .7948.1346 1.325.1099c1.8396-.0858 2.1402.1552 3.7148.9147z" fill="#fff"/>
 <path d="m61.2366,21.7565c-.2761-.4446.0735-1.2571.3273-1.5617 .2916-.35.9108-1.0119 1.3887-1.0798 .4193-.0597 1.5153.3967 1.6815.7849 .1037.242.2258.3139.1492.5694-.1868.6225-1.0175.9248-1.7408,1.2139-.7063.2824-1.6528.2164-1.8059.0733z" fill="#fff"/>
 <path d="m65.7313,7.9221c-.1623.1196-.2486.3968-.2972.598-.6837,2.83-1.2865,5.9007-1.7328,9.0783-.0737.525.5958,1.218 1.0456,1.4491 1.1311.5811 2.1764.077 2.4325-1.2774 .5842-3.0902.4123-4.5026.3899-6.7678-.0086-.8667.0972-1.9383-.3686-2.7537-.158-.2767-.4759-.4254-.7974-.4609-.2129-.0235-.5097.0148-.672.1344z" fill="#fff"/>
 <path d="m145.538,110.235-.2836-.9926-.2127-1.2762-.2836-.9926c-.2127.1182-.4379.0542-.6381.3545s-.1956.878-.4963,1.3471-.7288.9539-1.2762,1.418c-1.3501,1.1447-2.806,1.8285-4.5376,2.1979-1.6878.36-3.6607.3989-5.3884.4254-.7688.0118-1.4024.0748-1.9852-.0709-1.2165-.3041-1.8499-1.0749-2.127-2.2688-.156-.672-.1655-1.7724-.2127-2.4815-.0948-1.4243.1655-1.9239-1.0635-2.9069-.3612-.2889-.8948-.2743-1.1344-.5672s-.3088-.5813-.1418-.9926 .5079-.8776 1.0635-1.2762c2.3025-1.652 5.9391-1.9936 8.7207-2.4106 1.1819-.1772 2.5386-.4017 3.8286-.4963s2.7698.0599 3.8995-.0709 1.9758-.2052 2.836-.709 1.4291-1.4054 2.127-2.1979c1.3219-1.5011 2.4278-3.3917 4.0413-4.6085 1.6073-1.2122 3.2595-1.5406 5.2466-1.418 .9659.0596 2.1244.3776 2.836.5672s.9788.5543 1.418.5672 .699.0144.9926-.4963 .37-1.7791.6381-2.3397 .3555-.9076.9217-.9217 1.2082.2056 1.9143.8508 1.615,1.9314 2.1979,2.9069c1.0069,1.6851 1.6764,3.7146 1.8434,5.672 .0832.9751-.0472,2.0325-.0709,3.0487-.3545,1.3235-.6692,2.9667-1.0635,3.9704-.5288,1.3461-1.8419,2.8592-2.836,3.8995-.5101.5338-1.0134.9433-1.4889,1.2762-1.5529,1.0872-2.7631,1.118-4.254,0-.4734-.355-1.0987-.8741-1.6307-1.3471s-1.0399-.9926-1.5598-1.4889-.9624-1.0708-1.5598-1.4889-1.3694-.8115-1.9852-.9926-1.0592-.2995-1.6307-.0709-1.0736.8491-1.5598,1.3471c-1.3198,1.3518-2.461,2.9333-3.8286,4.254-.3441.3323-.705.5766-.9217.709s-.2363.0473-.3545.0709z" fill="#fff"/>
 <path d="m117.461,104.167c.1985-.0397.7997.0855 1.0603-.1844s.2463-.7723.2305-1.1525c-.0447-1.0765-1.0387-2.6511-1.6135-3.5036-.9372-1.39-2.699-2.9287-4.1029-3.7802-1.7743-1.0761-3.6419-1.3519-5.6703-1.4291-1.1065-.0421-2.3302-.1049-3.227.6454-1.3892,1.1624-3.2979,4.0524-.8298,5.0249 .5124.2019.9284.3379 2.0284.5532s3.2236.358 4.5639.7376 2.4279,1.0757 3.4114,1.5213c1.515.6864 2.6832,1.1665 4.2873,1.5674 .3205.0801-.3368.0397-.1383,0z" fill="#fff"/>
 <path d="m75.1265,109.031c.1387-.5719.2687-1.1612.416-1.716 .32-1.2053.4742-1.5725 1.248-2.496 .2687-.3207.9905-.5643.832-1.04-.2655-.7971-2.5613-1.145-3.276-1.196-.4919-.0351-.8113.0157-1.092.156s-.386.3051-.468.624c-.1545.6009-.0558,2.0289.156,2.6 .2033.5482.6934,1.2134 1.04,1.82l.78,1.196 .364.052z" fill="#fff"/>
 <path d="m83.5505,103.311c.6788.1129 1.4807-.7384 1.352-1.404-.0576-.2979-.2711-.6898-.572-.936s-.6825-.3374-1.144-.468c-1.4823-.4195-1.5823-.2564-2.704-1.404-.3727-.3813-.7343-.9726-1.144-1.196s-.8572-.2355-1.144-.052c-.9437.6038.7088,3.0427 1.196,3.484 .7666.6943 2.105,1.2789 3.068,1.664 .4348.1739.7772.2596 1.092.312z" fill="#fff"/>
 <path d="m83.4159,98.8127c.0001-.5195.0952-1.0314 0-1.5588-.262-1.4519-.5039-2.1885-.5196-3.7671-.0072-.722.0014-1.6008-.0866-2.1217s-.074-.8053-.433-.9526-.7861-.0659-1.2557.2598-1.0498,1.0408-1.4289,1.6021-.7101,1.1913-.8227,1.732 .0009.966.1732,1.3856c.4155,1.0119 1.8123,1.9323 2.598,2.6413l1.0825.5629 .6928.2165z" fill="#fff"/>
 <path d="m92.558,92.3223c.2378-.123.3814-.2354.4609-.7123s.1351-1.3702 0-2.0531-.2607-1.2554-.7961-1.9693-1.506-1.6275-2.3464-2.2207-1.8192-.9764-2.6397-1.2989-1.7063-.5707-2.2626-.6285-.7435.1125-.9637.2933-.1881.4557-.2095.6704c-.0765.7683.5765,1.0232 1.0894,1.5084 .5167.4888 1.4456,1.3758 2.095,2.0112s1.2845,1.2426 1.8017,1.8017 .9249,1.1904 1.2989,1.5503c.4174.4017 1.9487,1.3183 2.4721,1.0475z" fill="#fff"/>
 <path d="m74.2985,94.3653c.5369-.553 1.168-1.0858 1.6104-1.6592 1.0206-1.3229 1.3205-2.3721 1.1224-4.0504-.2575-2.1819-.9648-3.7773-2.196-5.5632-.5788-.8396-1.3339-1.6755-2.0008-2.5376-1.4645-1.8931-2.8007-3.7403-4.636-5.3192-.7608-.6545-1.2823-.9551-1.9032-1.22-1.0833-.4622-2.1143-.5641-2.9768.3416-.6612.6944-.9992,1.8899-.8784,2.8304 .1972,1.5356 1.0697,3.1828 2.0008,4.392 .6307.8191 1.6263,1.7401 2.3424,2.44s1.1864,1.146 1.952,1.7568c1.7754,1.4164 3.0974,2.0712 4.2456,4.148 .3858.6978.512,1.2998.6832,1.9032s.2278,1.1387.3416,1.708l-.1464.7808 .4392.0488z" fill="#fff"/>
 <path d="m57.9669,70.4111c-.763,0-1.3092.1144-2.3653.1526s-2.2549-.1027-3.1283,0-1.3988.4197-2.0601.6104-1.3047.2776-1.9075.5341-1.2392.63-1.6786.9919-.8052.8291-.9156,1.1445-.0768.2506.3815.3815 1.343.3432 2.289.3815 2.3894-.0635 3.3572-.1526 1.653-.2417 2.4416-.3815 1.6594-.1229 2.289-.4578 .8648-.9664 1.2971-1.4497l.0763-1.9838-.0763.2289z" fill="#fff"/>
 <path d="m38.8919,58.432c-.2543.229-.4069.3815-.763.6867s-.7448.7725-1.3734,1.1445-1.5246.7498-2.3653,1.0682-1.9075.6104-2.6705.8393-1.3593.3429-1.9075.5341-1.0441.3734-1.3734.6104-.4529.4787-.5341.763-.1126.5922.0763.8393 .327.4055.9156.4578 1.5857.0006 2.5179-.1526 2.0601-.5214 3.052-.763 1.9741-.5968 2.8994-.6867 1.7471-.0142 2.5942.1526 1.4338.597 2.4416.8393 2.156.5211 3.5861.6104 3.6974.0911 4.9595-.0763 1.7549-.6486 2.5179-.9156 1.6076-.385 2.0601-.6867 .6409-.5924.4578-.9919-.5476-.5938-1.2971-.8393-2.0466-.445-3.1283-.6104-2.2509-.2544-3.3572-.3815-2.3752-.2157-3.2809-.3815-1.4365-.3814-2.1364-.6104-1.3733-.5086-2.0601-.763l-1.8312-.6867z" fill="#fff"/>
 <path d="m11.5002,53.9303c-.3436-.0127-1.0113-.2043-1.3734-.1526-.6437.0919-1.3152.7223-.9919,1.4497 .1141.2567.378.4896.6867.6104 .8671.3393 2.775.6996 3.7387.9156 .7402.1659 1.9182.3687 2.8994.4578s1.9826.1017 2.9757.0763 2.0424-.0627 2.9757-.2289 1.7904-.4568 2.5942-.763 1.27-.5205 2.2127-1.0682 2.5815-1.4769 3.4335-2.2127 1.2406-1.4647 1.6023-2.1364 .5076-1.3008.5341-1.8312-.0187-.9684-.3815-1.2208-.8896-.0254-1.3734,0-1.0107.0109-1.526.1526-.8763.33-1.526.6867-1.6395.9531-2.3653,1.4497-1.258,1.0294-1.9838,1.526-1.6892,1.0925-2.3653,1.4497-1.0755.5328-1.6786.6867-1.2334.1654-1.9075.2289-1.4742.1399-2.1364.1526-1.3098-.0509-1.8312-.0763l-1.2971-.0763c-.3687-.0254-.572-.0636-.9156-.0763z" fill="#fff"/>
 <path d="m59.1209,5.6913c.6439,2.1371.1212,5.2194 0,7.4024-.0487.8767-.0974,1.8824-.0974,2.6298s-.0182,1.3219.0974,1.8506 .2021.9749.5844,1.2662c.883.6728 2.536.2702 2.8246-.8766 .6671-2.6506.981-6.5106 1.2662-9.74 .0726-.8221-.2527-1.6073-.487-2.1428s-.4663-.7518-.8766-.974-1.0792-.2756-1.461-.2922c-.5335-.0231-1.3569.2718-1.9207.3468l.0701.5298z" fill="#fff"/>
 <path d="m53.9635,8.0316c-.0208,1.8171-.5605,5.5987-.0048,7.2049 .1529.4419.5499.8905.8766,1.2662s.6473.815 1.0714.974 .8952.4298 1.2662-.0974 .3894-1.2971.5844-2.5324 .5192-3.7605.5844-4.87c.0656-1.1179.3305-4.4224-.7792-5.1622-.5229-.3486-1.412-.4382-2.3376-.7792s-2.0411-.9241-3.2142-1.2662-2.4492-.5841-3.7986-.7792-3.0019-.3247-4.2856-.3896-2.3677-.065-3.409,0-1.9921.1938-2.8246.3896-1.555.2778-2.1428.7792-.9059,1.3883-1.1688,2.0454-.0526,1.2439-.3896,1.8506c-.9051,1.6295-3.0204,3.2153-4.1882,4.7726-1.0047,1.3397-2.1485,3.0951-2.922,4.5778-.599,1.1481-.9701,2.4274-1.5584,3.6038l-.0974.8766c.4546-.0973.5809.2573 1.3636-.2922s2.0774-1.8176 3.2142-2.922c2.4893-2.4184 4.6227-4.6708 6.2336-7.792 .5252-1.0176.454-1.2054.487-1.948s-.3426-1.7959-.2922-2.435 .2381-1.0161.5844-1.2662 .6685-.3931 1.1688,0 1.07,1.5567 1.5584,2.1428 .8246.9389 1.3636,1.3636 1.2311.9044 1.8506,1.1688c1.6461.7025 3.0304.4105 4.2229.5817 .484.0695.3229.6278 1.4563.7569 .4035.0459.9065-.1056.959.3499s-.0962.9202-.1124,1.7205-.0606,2.3442.1948,3.0194 .8618.7486 1.3088.8644 .9109.1044 1.321-.1826 .3889-.283.487-1.461 .5005-4.5044.5174-5.6638c.0221-1.5106-.784-.6509-.6909-2.1251 .0438-.6928 1.0701-.9809 1.5944-.7189 .2702.135-.0362.9505-.0525,2.3743z" fill="#fff"/>
 <path d="m33.8048,15.6384c.3584.7995.771,1.5412 1.0751,2.3983s.6466,1.8349.7443,2.7291 .0161,1.7538-.1654,2.5637-.6754,1.6402-.9097,2.2329-.4533.8653-.4962,1.3232 .062.9365.2481,1.3232 .653.4165.827.9097 .2213,1.2721.1654,1.9021-.1288,1.1836-.4962,1.8194-1.1436,1.2676-1.654,1.9021-1.07,1.2441-1.4059,1.9021-.4135,1.3506-.5789,1.9848c-.6965,2.6706-1.8144,3.4829-4.7139,4.2177-1.6409.4159-4.6923.8556-6.2852.1654-1.7377-.753-2.3911-2.6474-2.481-4.3831-.1455-2.808.3775-6.2888 1.7367-8.7662 1.6707-3.045 4.6072-5.3818 7.1949-7.6084 1.1854-1.02 2.5752-2.0516 3.5561-2.9772s1.5438-1.7091 2.3156-2.5637l1.0751-.9097 .2481-.1654z" fill="#fff"/>
 <path d="m164.999,76.0509c.6585.0469 1.547.051 2.754.204 1.418.1797 3.1302.7774 4.488.816 .6142.0175 1.1704-.0099 1.428-.408 .5335-.8245-1.0018-2.135-1.53-2.55-.9729-.7645-2.2671-1.5491-3.57-1.326-1.1436.1957-2.799,1.3765-3.366,2.448-.1562.2952-.8625.7691-.204.816z" fill="#fff"/>
 <path d="m150.176,89.9241c-.3891.5089-.6209,1.0408-1.1674,1.5266s-1.3315.9127-2.0654,1.347-1.3743.9828-2.3348,1.2572-2.3463.179-3.3226.3592-1.7001.3716-2.5144.7184-1.7117.8455-2.3348,1.347c-1.8419,1.4825-1.6735,2.0376-4.49,2.4246-2.6312.3615-5.3558.0308-7.9922.449-2.8312.449-2.9609,1.832-4.2206-1.347-.3149-.7947-.5366-1.8958-.898-2.694s-.7853-1.5174-1.2572-2.0654-.8874-.9336-1.5266-1.1674-1.3468-.1347-2.1552-.1796-1.8989-.0148-2.694-.0898c-.7951-.075-1.5771-.1545-2.0654-.3592s-.5486-.4684-.7184-.8082-.3376-.8263-.2694-1.1674 .117-.4426.6286-.6286 1.5757-.1606 2.3348-.449 1.4808-.5981 2.1552-1.2572 1.3439-1.7754 1.796-2.6042 .5958-1.7454.898-2.3348 .5149-.9509.898-1.1674 .832-.5217 1.1674,0 .149,1.4044.449,2.5144 .9117,3.0348 1.347,4.1308 .6126,1.6879 1.2572,2.4246 1.5004,1.3562 2.5144,1.8858 2.0277.9262 3.5022,1.2572 3.6388.6883 5.2982.7184 2.873-.2843 4.5798-.5388 4.0935-.5818 5.6574-.9878 2.6789-1.0626 3.6818-1.4368 1.5566-.5387 2.3348-.8082l1.5266-.2694z" fill="#fff"/>
 <path d="m75.9637,66.1617c.2105,1.158.4869,2.2996 1.2472,3.7416s1.9168,3.2147 3.2739,4.8329c2.6186,3.1224 6.02,6.2859 9.5099,8.4186 1.8792,1.1484 4.4522,2.5143 6.5478,3.2739 3.5719,1.2947 8.1483,1.8712 11.8484.7795 2.9648-.8748 6.711-5.0123 7.0155-8.2627 .0821-.8763-.0562-1.645-.6236-2.1826-.9999-.9474-3.3499-.2858-4.3652-1.4031-.3605-.3967-.0373-.6549.4677-.9354 1.5194-.8439 4.2839-.2213 5.4565-1.2472 1.0374-.9077.7606-4.453.3118-5.6124-.4038-1.0432-2.1593-2.6685-3.118-3.2739-.486-.3069-2.4981-.5071-2.1826-1.559 .128-.4267.7671-.4144 1.2472-.4677 .8532-.0947 1.595.1499 2.4944,0-.3637-.4676-.4545-.9256-1.0913-1.4031-2.2858-1.7144-4.4638-2.4471-7.1991-2.9105-2.4207-.4101-5.861-.5808-8.1432-1.5351-3.2874-1.3746-5.9668-2.7398-8.9781-4.5966-6.2772-3.8706-11.0632-6.9451-18.7558-6.808-2.371.0422-5.3797.8918-7.5913,1.8192-.8134.341-1.5503.8502-2.0267,1.2472s-.6914.7387-.7795,1.0913-.1057.5012.3118.7795 1.5871.3691 2.0267.7795 .4066,1.0238.3118,1.4031-.1702.5231-.7795.4677-1.8192-.2701-2.6503-.7795-1.4551-1.4551-2.1826-2.1826-1.4012-1.5054-2.1826-2.1826c-1.5341-1.3295-3.6781-3.1416-5.4565-4.0534-2.3826-1.2216-6.1928-1.5694-8.7304-.9354-.8424.2105-2.0254.4948-2.6503,1.0913s-.7519,1.4928-.7795,2.1826 .2822,1.1108.6236,1.7149c1.085,1.9199 2.8982,3.2721 4.677,4.5211 2.6427,1.8555 4.8605,2.8942 7.9509,3.7416 3.5776.981 6.1832,1.3168 9.8217,1.4031 1.0918.0259 1.7639.0516 2.4944.1559s1.4497.1368 1.8708.4677 .5216.9113.3118,1.2472-.5855.1597-1.0913,0-1.1891-.8264-1.8708-.9354-1.4646.0976-2.0267.3118-1.0373.5157-1.2472.9354-.118.7816.1559,1.2472 .7978.9821 1.4031,1.4031 1.2203.6752 2.1826,1.0913c1.4974.6474 4.6373,2.3385 6.236,2.3385 .7282,0 .9668-.1502 1.2472-.9354s.3643-2.3781.3118-3.4298-.3895-1.9477-.6236-2.8062-.4059-1.698-.7795-2.3385-.9874-.9874-1.4031-1.4031-.7006-.7527-1.0913-1.0913-.9539-.6154-1.2472-.9354-.6188-.5953-.4677-.9354 .4302-.5503 1.0913-.4677 1.6267.3581 2.6503.9354c6.7374,3.7997 5.8507,7.7787 7.0155,14.1869z" fill="#fff"/>
</svg>
